# Blender 3.3.1
# www.blender.org
o Cylinder
v 0.000000 1.000000 -1.500000
v 0.000000 1.000000 1.500000
v 0.382683 0.923880 -1.500000
v 0.382683 0.923880 1.500000
v 0.707107 0.707107 -1.500000
v 0.707107 0.707107 1.500000
v 0.923880 0.382683 -1.500000
v 0.923880 0.382683 1.500000
v 1.000000 0.000000 -1.500000
v 1.000000 0.000000 1.500000
v 0.923880 -0.382683 -1.500000
v 0.923880 -0.382683 1.500000
v 0.707107 -0.707107 -1.500000
v 0.707107 -0.707107 1.500000
v 0.382683 -0.923880 -1.500000
v 0.382683 -0.923880 1.500000
v 0.000000 -1.000000 -1.500000
v 0.000000 -1.000000 1.500000
v -0.382683 -0.923880 -1.500000
v -0.382683 -0.923880 1.500000
v -0.707107 -0.707107 -1.500000
v -0.707107 -0.707107 1.500000
v -0.923880 -0.382683 -1.500000
v -0.923880 -0.382683 1.500000
v -1.000000 0.000000 -1.500000
v -1.000000 0.000000 1.500000
v -0.923880 0.382683 -1.500000
v -0.923880 0.382683 1.500000
v -0.707107 0.707107 -1.500000
v -0.707107 0.707107 1.500000
v -0.382683 0.923880 -1.500000
v -0.382683 0.923880 1.500000
vn 0.1951 0.9808 -0.0000
vn 0.5556 0.8315 -0.0000
vn 0.8315 0.5556 -0.0000
vn 0.9808 0.1951 -0.0000
vn 0.9808 -0.1951 -0.0000
vn 0.8315 -0.5556 -0.0000
vn 0.5556 -0.8315 -0.0000
vn 0.1951 -0.9808 -0.0000
vn -0.1951 -0.9808 -0.0000
vn -0.5556 -0.8315 -0.0000
vn -0.8315 -0.5556 -0.0000
vn -0.9808 -0.1951 -0.0000
vn -0.9808 0.1951 -0.0000
vn -0.8315 0.5556 -0.0000
vn -0.0000 -0.0000 1.0000
vn -0.5556 0.8315 -0.0000
vn -0.1951 0.9808 -0.0000
vn -0.0000 -0.0000 -1.0000
vt 1.000000 0.500000
vt 0.000000 0.500000
vt 0.750000 0.490000
vt 1.000000 1.000000
vt 0.250000 0.490000
vt 0.000000 1.000000
vt 0.937500 0.500000
vt 0.841844 0.471731
vt 0.937500 1.000000
vt 0.341844 0.471731
vt 0.875000 0.500000
vt 0.919706 0.419706
vt 0.875000 1.000000
vt 0.419706 0.419706
vt 0.812500 0.500000
vt 0.971731 0.341844
vt 0.812500 1.000000
vt 0.471731 0.341844
vt 0.750000 0.500000
vt 0.990000 0.250000
vt 0.750000 1.000000
vt 0.490000 0.250000
vt 0.687500 0.500000
vt 0.971731 0.158156
vt 0.687500 1.000000
vt 0.471731 0.158156
vt 0.625000 0.500000
vt 0.919706 0.080294
vt 0.625000 1.000000
vt 0.419706 0.080294
vt 0.562500 0.500000
vt 0.841844 0.028269
vt 0.562500 1.000000
vt 0.341844 0.028269
vt 0.500000 0.500000
vt 0.750000 0.010000
vt 0.500000 1.000000
vt 0.250000 0.010000
vt 0.437500 0.500000
vt 0.658156 0.028269
vt 0.437500 1.000000
vt 0.158156 0.028269
vt 0.375000 0.500000
vt 0.580294 0.080294
vt 0.375000 1.000000
vt 0.080294 0.080294
vt 0.312500 0.500000
vt 0.528269 0.158156
vt 0.312500 1.000000
vt 0.028269 0.158156
vt 0.250000 0.500000
vt 0.510000 0.250000
vt 0.250000 1.000000
vt 0.010000 0.250000
vt 0.187500 0.500000
vt 0.528269 0.341844
vt 0.187500 1.000000
vt 0.028269 0.341844
vt 0.125000 0.500000
vt 0.580294 0.419706
vt 0.080294 0.419706
vt 0.125000 1.000000
vt 0.062500 0.500000
vt 0.658156 0.471731
vt 0.158156 0.471731
vt 0.062500 1.000000
s 0
f 2/4/1 3/7/1 1/1/1
f 4/9/2 5/11/2 3/7/2
f 6/13/3 7/15/3 5/11/3
f 8/17/4 9/19/4 7/15/4
f 10/21/5 11/23/5 9/19/5
f 12/25/6 13/27/6 11/23/6
f 14/29/7 15/31/7 13/27/7
f 16/33/8 17/35/8 15/31/8
f 18/37/9 19/39/9 17/35/9
f 20/41/10 21/43/10 19/39/10
f 22/45/11 23/47/11 21/43/11
f 24/49/12 25/51/12 23/47/12
f 26/53/13 27/55/13 25/51/13
f 28/57/14 29/59/14 27/55/14
f 22/46/15 14/30/15 6/14/15
f 30/62/16 31/63/16 29/59/16
f 32/66/17 1/2/17 31/63/17
f 15/32/18 23/48/18 31/64/18
f 2/4/1 4/9/1 3/7/1
f 4/9/2 6/13/2 5/11/2
f 6/13/3 8/17/3 7/15/3
f 8/17/4 10/21/4 9/19/4
f 10/21/5 12/25/5 11/23/5
f 12/25/6 14/29/6 13/27/6
f 14/29/7 16/33/7 15/31/7
f 16/33/8 18/37/8 17/35/8
f 18/37/9 20/41/9 19/39/9
f 20/41/10 22/45/10 21/43/10
f 22/45/11 24/49/11 23/47/11
f 24/49/12 26/53/12 25/51/12
f 26/53/13 28/57/13 27/55/13
f 28/57/14 30/62/14 29/59/14
f 6/14/15 4/10/15 2/5/15
f 2/5/15 32/65/15 30/61/15
f 30/61/15 28/58/15 26/54/15
f 26/54/15 24/50/15 22/46/15
f 22/46/15 20/42/15 18/38/15
f 18/38/15 16/34/15 14/30/15
f 14/30/15 12/26/15 10/22/15
f 10/22/15 8/18/15 6/14/15
f 6/14/15 2/5/15 30/61/15
f 30/61/15 26/54/15 22/46/15
f 22/46/15 18/38/15 14/30/15
f 14/30/15 10/22/15 6/14/15
f 6/14/15 30/61/15 22/46/15
f 30/62/16 32/66/16 31/63/16
f 32/66/17 2/6/17 1/2/17
f 31/64/18 1/3/18 3/8/18
f 3/8/18 5/12/18 7/16/18
f 7/16/18 9/20/18 11/24/18
f 11/24/18 13/28/18 15/32/18
f 15/32/18 17/36/18 19/40/18
f 19/40/18 21/44/18 23/48/18
f 23/48/18 25/52/18 27/56/18
f 27/56/18 29/60/18 31/64/18
f 31/64/18 3/8/18 7/16/18
f 7/16/18 11/24/18 15/32/18
f 15/32/18 19/40/18 23/48/18
f 23/48/18 27/56/18 31/64/18
f 31/64/18 7/16/18 15/32/18
